<?xml version="1.0" standalone="no"?><!DOCTYPE svg PUBLIC "-//W3C//DTD SVG 1.1//EN" "http://www.w3.org/Graphics/SVG/1.1/DTD/svg11.dtd"><svg t="1746720954386" class="icon" viewBox="0 0 1024 1024" version="1.1" xmlns="http://www.w3.org/2000/svg" p-id="14927" width="500" height="500" xmlns:xlink="http://www.w3.org/1999/xlink"><path d="M514.8 219.5L588 403.6c5.2 13.2 19.8 20 33.3 15.8l295.1-93.8 103.9-33-132.6-19.1C810 152.3 674.4 71.9 519.9 71.5 277.4 70.9 81.1 266.2 80.8 508.8c-0.1 38.8 4.9 76.5 14.4 112.3l419.6-401.6zM506.8 784l-73.2-184.1c-5.2-13.2-19.8-20-33.3-15.8L1.3 711 141 731.2c75.6 128.6 215 215.2 374.7 216.3 242 1.7 439.1-192.2 441.2-434.2 0.4-48.7-7.1-95.6-21.4-139.5L506.8 784z" fill="#438CFF" p-id="14928" data-spm-anchor-id="a313x.search_index.0.i5.60203a81aKKfIQ" class="selected"></path></svg>